PathFileType	4	(X/Y/Z)	pose_F01_0-96.trc
DataRate	CameraRate	NumFrames	NumMarkers	Units	OrigDataRate	OrigDataStartFrame	OrigNumFrames
30	30	9	21	m	30	80	96
Frame#	Time	CHip			RHip			RKnee			RAnkle			RBigToe			RSmallToe			RHeel			LHip			LKnee			LAnkle			LBigToe			LSmallToe			LHeel			Neck			Nose			RShoulder			RElbow			RWrist			LShoulder			LElbow			LWrist			
		X1	Y1	Z1	X2	Y2	Z2	X3	Y3	Z3	X4	Y4	Z4	X5	Y5	Z5	X6	Y6	Z6	X7	Y7	Z7	X8	Y8	Z8	X9	Y9	Z9	X10	Y10	Z10	X11	Y11	Z11	X12	Y12	Z12	X13	Y13	Z13	X14	Y14	Z14	X15	Y15	Z15	X16	Y16	Z16	X17	Y17	Z17	X18	Y18	Z18	X19	Y19	Z19	X20	Y20	Z20	X21	Y21	Z21	
80	2.6666666666666665	-0.2606790065773827	1.860958214055871	-0.6092960346095503	-0.27315198097542126	1.8579205169516082	-0.5449864964930544	-0.2863460281215967	1.7214258161467848	-0.5200218426584244													-0.24719045416622323	1.8606704494840791	-0.6690758485987033	-0.2539421429976153	1.736679658200286	-0.6470906790297988													-0.2622614766738867	2.018160782145249	-0.6521410826332534	-0.2513941744832218	2.0834525443000125	-0.6305942173354511	-0.2836525638807974	2.013279719861999	-0.5677667313706062	-1.696136685905261	1.8716299996282761	1.0479682039204317	-0.3157336602752852	2.016047725888172	-0.42117565033149246	-0.23632100244397086	2.0255757977388944	-0.7386969034344268	-0.6539808989347441	1.924404078095403	-0.39951740258398005	-0.1880802265560115	2.051644368985	-0.8388471013927771
81	2.7	-0.2597518825890864	1.8772958574472869	-0.6140215903709472	-0.271318336183334	1.8736466997499872	-0.5508132641624588	-0.2863460281215967	1.7214258161467848	-0.5200218426584244													-0.24615534818694157	1.878834137661295	-0.6737986461935435	-0.2538502464141177	1.7487873288345228	-0.6552462486771986													-0.26144170805940947	2.0305075108418364	-0.6607144857085905	-0.25234142875527826	2.092466107334532	-0.636369742397565	-0.28389776910460995	2.021914888173611	-0.57022594948509	-0.310365362797074	1.9826349373760597	-0.4436514294821466	-0.30855852276838597	2.0327321095980597	-0.4126113360596112	-0.23843035832658724	2.0380314140342755	-0.7484115799197785	-0.18612303459587268	2.0184180469861306	-0.8728911385620579	-0.1799943785078209	2.0810912059005595	-0.8620100174804746
82	2.7333333333333334	-0.2605310597077869	1.8697463081645889	-0.6216908692528704	-0.2728301926603284	1.8653830249923997	-0.5615482080737467	-0.2863460281215967	1.7214258161467848	-0.5200218426584244													-0.24584354484019924	1.8733292901616454	-0.6785347574567846	-0.2541416257708666	1.7367884296150542	-0.6623860029341305													-0.2641985288381289	2.0250921381136453	-0.659588138368825	-0.2526234584680117	2.0895532433726642	-0.6376256804949353	-0.2835990151978739	2.016034728074473	-0.5762417647392474	-0.307150654988789	1.9776835745939423	-0.4484147848650128	-0.2989004762869412	2.0283955281056154	-0.42985068033808077	-0.2391719758379083	2.032786003459945	-0.7492484458262779	-0.20152669109128046	2.0120977886757134	-0.871925952845166	-0.1964443958929717	2.0722134105097147	-0.8563050682447368
83	2.7666666666666666	-0.2613469342798845	1.851519750188033	-0.6195314148226796	-0.274881132665849	1.8469270400662279	-0.5623888644724292	-0.27758616755765886	1.7187783407345476	-0.5770692067453946													-0.24538855956995215	1.8551736832041523	-0.6816473140823112	-0.24930903519948866	1.720924826936181	-0.6702389073188489													-0.2660515825361357	2.005990844701783	-0.6605459552032984	-0.25350779149712394	2.0709995850926712	-0.6363634670839796	-0.28451764661318235	2.0006402139804043	-0.5748960181019469	-0.29472338297138684	1.953637313830223	-0.46883730586384814	-0.29515365684082906	2.0003991810444424	-0.4583682013497008	-0.24302952618262783	2.0127196647890666	-0.7480103447968295	-0.21203560292513754	1.9740506689472337	-0.8460377977509874	-0.20205347180819688	2.0301481166226973	-0.8337865803765839
84	2.8	-0.2593507593923409	1.8376850877725295	-0.6235857799717486	-0.27408091206030466	1.834800982911411	-0.5695120668673798	-0.27758616755765886	1.7187783407345476	-0.5770692067453946													-0.2434656083065551	1.8405694838710365	-0.6856796117346323	-0.25008380625819965	1.7107909510910193	-0.6643215075183031													-0.26588195743995297	1.9894474990913338	-0.656916399982453	-0.25472275885924117	2.0566569185065737	-0.6270906948805928	-0.28728039822742224	1.9841301445214468	-0.5719705253214016	-0.29289762976191597	1.9131962395792437	-0.511986421554896	-0.293521269161251	1.9588364306557997	-0.4748389295232723	-0.23974961315189064	1.9959512030011044	-0.7433335939495583	-0.6570195836913381	1.9091339937091654	-0.40612569284751493	-0.20241398936080038	2.018615208754003	-0.8279170889104942
85	2.8333333333333335	-0.2637928323690305	1.8368874288545314	-0.6275089881399524	-0.2744506003502957	1.834349599875122	-0.5696661597142058	-0.27758616755765886	1.7187783407345476	-0.5770692067453946													-0.24564104546815288	1.8404591181257421	-0.6918692681537367	-0.2511989023720787	1.7127666101446184	-0.6675716309952361													-0.2644504852632209	1.9960701980070457	-0.6629483448289144	-0.2541745151722064	2.0619013543590574	-0.6355780829028331	-0.2869162182926676	1.9909092471797207	-0.5811957106509792	-0.30198460981590064	1.9219021414301047	-0.5189517871304069	-1.685021144742655	1.8759821323247456	1.0304146637690172	-0.2382618968071345	2.002898067007769	-0.7495987347089342	-1.1020035644575386	1.844217318471097	0.033786412055957595	-0.20277450691340387	2.0070823008853083	-0.8220475974444045
86	2.8666666666666667	-0.2608397655766321	1.8613632030956127	-0.6325163792543732	-0.2737102976514379	1.857648301338052	-0.5725152262841916	-0.27758616755765886	1.7187783407345476	-0.5770692067453946													-0.24489915601389273	1.8636901916350783	-0.6943880830709094	-0.252110485805853	1.727613020863813	-0.6762143127406446													-0.26363669963592284	2.014477689426896	-0.6735241189983098	-0.2526398213313977	2.0768308789001386	-0.6427422684202041	-0.28521191595182	2.008275058286426	-0.5885281434126162	-0.30345070530282653	1.946668922190286	-0.49486390299258426	-0.30443137904382456	1.9892930141073255	-0.4515629450054355	-0.2402424463174889	2.02093374612932	-0.7606825541668565	-0.20317477323822974	1.9767433194201942	-0.8614943477199755	-0.19071921569648603	2.037805425718665	-0.8487694814867182
87	2.9	-0.26149117802414035	1.8652557661843003	-0.6361970437710747	-0.27422951678635543	1.863051654469871	-0.5762801052061071	-0.27758616755765886	1.7187783407345476	-0.5770692067453946													-0.2454675394134593	1.8676471875663618	-0.698028870632847	-0.25179386622376354	1.725402953202125	-0.6742793005392912													-0.2643512084860906	2.018252229866822	-0.676716482740919	-0.25356694448869116	2.0780720430756543	-0.646317888101617	-0.2872407865828863	2.0130673251835036	-0.5957582593739168	-0.3032008435351461	1.9492768419253412	-0.4869205428466326	-0.30492336673893555	1.992480168627645	-0.4460470356206313	-0.24231001135521898	2.0255237503673973	-0.759133519478185	-0.1982052554910272	1.9819462657246465	-0.8665504336751277	-0.18266237867319599	2.0437297716335263	-0.8644640108238005
88	2.933333333333333	-0.26289404553738355	1.8528933625534298	-0.6378894523266497	-0.27585535104157627	1.8498060540489913	-0.5778190509249892	-0.27758616755765886	1.7187783407345476	-0.5770692067453946													-0.2458129310485536	1.8539421778857523	-0.6966746616895101	-0.25147724664167403	1.7231928855404368	-0.6723442883379378													-0.2644515150967671	2.005484192238656	-0.6748847037231885	-0.2525655316487419	2.0681989264429426	-0.6494676718698855	-0.2843783811752359	1.9980019559607003	-0.5923707321022309	-0.30043091808869987	1.9356550976319655	-0.5004077702211738	-0.299506099465656	1.981067734474128	-0.4589837571939306	-0.2402178464698802	2.0147558278131257	-0.7595219540934265	-0.6545063280086243	1.9017977391112808	-0.4024956259468561	-0.6617376371639889	1.9509366046697463	-0.37115558850409125
